<?xml version="1.0" encoding="UTF-8"?>
<svg id="uuid-285dfc78-ec61-4dea-b5ca-4560580c277f" xmlns="http://www.w3.org/2000/svg"
    viewBox="0 0 352 512"><defs><mask id="uuid-61d8a235-8abd-42d2-883a-259c1f6cf3dc" x=".23" y="283.65" width="404.08" height="228.34" maskUnits="userSpaceOnUse"><g id="uuid-752d0cf8-bc46-4c4f-9e2b-2e612db46312"><g id="uuid-42e93690-cedd-47be-9268-906a578b302c"><path d="M.23,511.99l358.42-228.34h45.66v228.34H.23Z" style="fill:#fff; stroke-width:0px;"/></g></g></mask><linearGradient id="uuid-6fb8351c-9067-4a7c-b5fb-7227cdd3aa54" x1="152.43" y1="451.27" x2="227.8" y2="526.64" gradientUnits="userSpaceOnUse"><stop offset="0" stop-color="#656599"/><stop offset="1" stop-color="#996582"/></linearGradient><linearGradient id="uuid-fab7d32d-ef47-4b91-8be0-959d0a053ce9" x1="234.59" y1="376.56" x2="317.97" y2="459.94" gradientUnits="userSpaceOnUse"><stop offset="0" stop-color="#659982"/><stop offset="1" stop-color="#656599"/></linearGradient></defs><g id="uuid-42b6dfbd-2bb3-4a1c-9a0f-308ee5636cd4"><polygon points="0 511.99 352 287.75 352 512 0 511.99" style="fill:#202423; stroke-width:0px;"/><path d="M358.42,283.66l-6.42,4.09L0,511.99M389.1,283.66l-37.1,79.74-69.13,148.6M217.66,511.99l134.34-187.18,29.54-41.16M373.98,283.66l-21.98,21.98-206.34,206.36M81.03,511.99l270.97-216.8,14.43-11.54" style="fill:none; stroke:#fff; stroke-miterlimit:10; stroke-width:2px;"/><g style="mask:url(#uuid-61d8a235-8abd-42d2-883a-259c1f6cf3dc);"><path d="M52.22,478.72h351.78M97.88,449.64h304.79M143.53,420.55h259.13M179.21,397.39h223.46M216.26,374.22h186.41M254.2,350.05l97.8.66,50.67.34M288.99,327.89h113.68M325.35,304.72h77.32" style="fill:none; stroke:#fff; stroke-miterlimit:10; stroke-width:2px;"/></g></g><g id="uuid-78d8e7e9-1ac6-407e-9d7f-bac9febbd116"><g id="uuid-42650708-e6b7-4450-9b8d-97691c5a6211"><path d="M222.99,458.8v72.65h-45.4c-9.51,0-18.34-7.64-20.58-17.78l-12.11-54.87h78.09Z" style="fill:url(#uuid-6fb8351c-9067-4a7c-b5fb-7227cdd3aa54); stroke-width:0px;"/><path d="M333.99,386.14v48.5c0,13.05-10.91,22.15-20.71,22.15h-88.28v-70.65h108.98Z" style="fill:url(#uuid-fab7d32d-ef47-4b91-8be0-959d0a053ce9); stroke-width:0px;"/></g><g id="uuid-b58473e3-4a24-4541-aed2-39262d823b37"><path d="M222.99,386.14v70.65h-86.82c-12.21,0-22.15-9.94-22.15-22.15v-48.5h108.97Z" style="fill:#202423; stroke-width:0px;"/><path d="M302.4,458.8l-11.48,54.67c-2.19,10.42-11.3,17.98-21.66,17.98h-44.27v-72.65h77.4Z" style="fill:#202423; stroke-width:0px;"/></g><g id="uuid-8247e922-31df-4445-bdd9-bd083209fcd8"><path d="M334,386.13v48.5c0,12.22-9.94,22.16-22.16,22.16h-175.67c-12.22,0-22.16-9.94-22.16-22.16v-48.5h220M336,384.13H112v50.5c0,13.34,10.82,24.16,24.16,24.16h175.67c13.34,0,24.16-10.82,24.16-24.16v-50.5h0Z" style="fill:#fff; stroke-width:0px;"/><path d="M302.43,458.78l-11.49,54.69c-2.19,10.43-11.3,17.99-21.66,17.99h-90.55c-10.36,0-19.47-7.57-21.66-17.99l-11.49-54.69h156.85M304.89,456.78h-161.78l11.99,57.1c2.4,11.43,12.24,19.58,23.62,19.58h90.55c11.38,0,21.22-8.16,23.62-19.58l11.99-57.1h0Z" style="fill:#fff; stroke-width:0px;"/><path d="M302.43,458.78l-11.49,54.69c-2.19,10.43-11.3,17.99-21.66,17.99h-90.55c-10.36,0-19.47-7.57-21.66-17.99l-11.49-54.69h156.85M304.89,456.78h-161.78l11.99,57.1c2.4,11.43,12.24,19.58,23.62,19.58h90.55c11.38,0,21.22-8.16,23.62-19.58l11.99-57.1h0Z" style="fill:#fff; stroke-width:0px;"/><path d="M262.22,458.78l-5.77,54.89c-1.07,10.14-5.29,17.79-9.82,17.79h-45.27c-4.53,0-8.76-7.65-9.82-17.79l-5.77-54.89h76.45M264.44,456.78h-80.89l6,57.1c1.2,11.43,6.12,19.58,11.81,19.58h45.27c5.69,0,10.61-8.16,11.81-19.58l6-57.1h0Z" style="fill:#fff; stroke-width:0px;"/><line x1="224" y1="386.14" x2="224" y2="532.78" style="fill:none; stroke:#fff; stroke-miterlimit:10; stroke-width:2px;"/><path d="M278,386.13v48.5c0,13.06-5.31,22.16-10.08,22.16h-87.84c-4.77,0-10.08-9.1-10.08-22.16v-48.5h108M280,384.13h-112v50.5c0,13.34,5.41,24.16,12.08,24.16h87.84c6.67,0,12.08-10.82,12.08-24.16v-50.5h0Z" style="fill:#fff; stroke-width:0px;"/></g></g></svg>