<?xml version="1.0" encoding="UTF-8"?><svg id="uuid-548ea9c2-d250-427d-912e-b320b58cef11" xmlns="http://www.w3.org/2000/svg" xmlns:xlink="http://www.w3.org/1999/xlink" viewBox="0 0 352 512"><defs><mask id="uuid-7ca4f300-4e09-4e90-92ed-b162a9a6492e" x=".23" y="283.65" width="404.08" height="228.34" maskUnits="userSpaceOnUse"><g id="uuid-c25c466a-9083-466c-9999-2cd4ae8b4fda"><g id="uuid-4e1f64db-4b65-4e27-bd60-b905f7b57c26"><path d="M.23,511.99l358.42-228.34h45.66v228.34H.23Z" style="fill:#fff; stroke-width:0px;"/></g></g></mask><linearGradient id="uuid-7d18f474-e7f2-4375-b6c8-ffaf2cf34fd4" x1="152.43" y1="451.27" x2="227.8" y2="526.64" gradientUnits="userSpaceOnUse"><stop offset="0" stop-color="#452fd0"/><stop offset="1" stop-color="#d02f69"/></linearGradient><linearGradient id="uuid-c3d1b0e4-dbff-4c38-8ed1-1c71158b8bd1" x1="150.41" y1="236.15" x2="224.85" y2="310.59" gradientUnits="userSpaceOnUse"><stop offset="0" stop-color="#bad02f"/><stop offset="1" stop-color="#2fd096"/></linearGradient><linearGradient id="uuid-e471faac-b25d-46ed-b353-2a57f7fd44f0" x1="234.59" y1="376.56" x2="317.97" y2="459.94" gradientUnits="userSpaceOnUse"><stop offset="0" stop-color="#2fd096"/><stop offset="1" stop-color="#452fd0"/></linearGradient></defs><g id="uuid-c1e35a3a-d150-4267-bf3d-8409eec56784"><polygon points="0 511.99 352 287.75 352 512 0 511.99" style="fill:#eee; stroke-width:0px;"/><path d="M358.42,283.66l-6.42,4.09L0,511.99M389.1,283.66l-37.1,79.74-69.13,148.6M217.66,511.99l134.34-187.18,29.54-41.16M373.98,283.66l-21.98,21.98-206.34,206.36M81.03,511.99l270.97-216.8,14.43-11.54" style="fill:none; stroke:#202124; stroke-miterlimit:10; stroke-width:2px;"/><g style="mask:url(#uuid-7ca4f300-4e09-4e90-92ed-b162a9a6492e);"><path d="M97.88,449.64h304.79M143.53,420.55h259.13M179.21,397.39h223.46M216.26,374.22h186.41M254.2,350.05l97.8.66,50.67.34M288.99,327.89h113.68M325.35,304.72h77.32" style="fill:none; stroke:#202124; stroke-miterlimit:10; stroke-width:2px;"/></g></g><g id="uuid-e6b7503a-510e-4a07-9e55-2a9a38c9dd2b"><g id="uuid-62c9465d-a963-42ec-b7f5-46a487c1ff17"><path d="M222.99,458.8v72.65h-45.4c-9.51,0-18.34-7.64-20.58-17.78l-12.11-54.87h78.09Z" style="fill:url(#uuid-7d18f474-e7f2-4375-b6c8-ffaf2cf34fd4); stroke-width:0px;"/><path d="M225,310.44c-4.7-.06-36.07-1.01-57.55-27.01-15.95-19.31-16.87-40.83-16.89-47.43,5.13.05,31.23.84,52.41,22.02,21.18,21.18,21.98,47.29,22.03,52.42Z" style="fill:url(#uuid-c3d1b0e4-dbff-4c38-8ed1-1c71158b8bd1); stroke-width:0px;"/><path d="M333.99,386.14v48.5c0,13.05-10.91,22.15-20.71,22.15h-88.28v-70.65h108.98Z" style="fill:url(#uuid-e471faac-b25d-46ed-b353-2a57f7fd44f0); stroke-width:0px;"/></g><g id="uuid-75935e3a-1cc0-468d-b8ac-d517eb376738"><path d="M222.99,386.14v70.65h-86.82c-12.21,0-22.15-9.94-22.15-22.15v-48.5h108.97Z" style="fill:#eee; stroke-width:0px;"/><path d="M302.4,458.8l-11.48,54.67c-2.19,10.42-11.3,17.98-21.66,17.98h-44.27v-72.65h77.4Z" style="fill:#eee; stroke-width:0px;"/><path d="M295.38,282.27c-.34,10.31-3.13,28.02-16.4,44.08-8.78,10.64-20.27,18.24-34.12,22.59-8.42,2.65-15.72,3.41-19.79,3.61.42-8.94,3.39-30.94,21.36-48.91,18-17.99,40.02-20.95,48.95-21.37Z" style="fill:#eee; stroke-width:0px;"/></g><g id="uuid-ef5890ef-0f24-47af-a431-58b1223c0087"><path d="M334,386.13v48.5c0,12.22-9.94,22.16-22.16,22.16h-175.67c-12.22,0-22.16-9.94-22.16-22.16v-48.5h220M336,384.13H112v50.5c0,13.34,10.82,24.16,24.16,24.16h175.67c13.34,0,24.16-10.82,24.16-24.16v-50.5h0Z" style="fill:#000; stroke-width:0px;"/><path d="M302.43,458.78l-11.49,54.69c-2.19,10.43-11.3,17.99-21.66,17.99h-90.55c-10.36,0-19.47-7.57-21.66-17.99l-11.49-54.69h156.85M304.89,456.78h-161.78l11.99,57.1c2.4,11.43,12.24,19.58,23.62,19.58h90.55c11.38,0,21.22-8.16,23.62-19.58l11.99-57.1h0Z" style="fill:#000; stroke-width:0px;"/><path d="M302.43,458.78l-11.49,54.69c-2.19,10.43-11.3,17.99-21.66,17.99h-90.55c-10.36,0-19.47-7.57-21.66-17.99l-11.49-54.69h156.85M304.89,456.78h-161.78l11.99,57.1c2.4,11.43,12.24,19.58,23.62,19.58h90.55c11.38,0,21.22-8.16,23.62-19.58l11.99-57.1h0Z" style="fill:#000; stroke-width:0px;"/><path d="M262.22,458.78l-5.77,54.89c-1.07,10.14-5.29,17.79-9.82,17.79h-45.27c-4.53,0-8.76-7.65-9.82-17.79l-5.77-54.89h76.45M264.44,456.78h-80.89l6,57.1c1.2,11.43,6.12,19.58,11.81,19.58h45.27c5.69,0,10.61-8.16,11.81-19.58l6-57.1h0Z" style="fill:#000; stroke-width:0px;"/><line x1="224" y1="309.69" x2="224" y2="532.78" style="fill:none; stroke:#000; stroke-miterlimit:10; stroke-width:2px;"/><path d="M152.6,238.06c8.91.42,30.96,3.37,48.97,21.38,17.99,17.99,20.95,40,21.37,48.94-4.07-.21-11.38-.96-19.82-3.62-13.86-4.36-25.34-11.96-34.13-22.6-13.27-16.07-16.06-33.79-16.4-44.1M150.56,236c.03,6.59.95,28.12,16.89,47.43,21.48,26,52.85,26.95,57.55,27.01-.05-5.14-.84-31.24-22.02-52.42-21.18-21.18-47.28-21.97-52.42-22.02h0Z" style="fill:#000; stroke-width:0px;"/><path d="M295.39,282.26c-.34,10.3-3.13,28.03-16.4,44.1-8.79,10.64-20.27,18.24-34.13,22.6-8.43,2.65-15.74,3.41-19.82,3.62.42-8.93,3.39-30.95,21.37-48.94,18.01-18.01,40.05-20.96,48.97-21.38M297.43,280.2c-5.14.05-31.24.84-52.42,22.02-21.18,21.18-21.97,47.28-22.02,52.42,4.7-.06,36.07-1.01,57.55-27.01,15.95-19.31,16.87-40.84,16.89-47.43h0Z" style="fill:#000; stroke-width:0px;"/><path d="M278,386.13v48.5c0,13.06-5.31,22.16-10.08,22.16h-87.84c-4.77,0-10.08-9.1-10.08-22.16v-48.5h108M280,384.13h-112v50.5c0,13.34,5.41,24.16,12.08,24.16h87.84c6.67,0,12.08-10.82,12.08-24.16v-50.5h0Z" style="fill:#000; stroke-width:0px;"/></g></g></svg>