<?xml version="1.0" encoding="UTF-8"?><svg id="uuid-865dd00a-0bb3-4cbe-a43c-d56c256dcd67" xmlns="http://www.w3.org/2000/svg" xmlns:xlink="http://www.w3.org/1999/xlink" viewBox="0 0 352 512"><defs><mask id="uuid-4e2fc18e-c26f-40ff-975f-b0d7b8bc2815" x=".23" y="283.65" width="404.08" height="228.34" maskUnits="userSpaceOnUse"><g id="uuid-9d7bc10e-602b-4715-9db8-aee5e69591f8"><g id="uuid-1da0f20c-7b42-454b-a232-338fa94f362c"><path d="M.23,511.99l358.42-228.34h45.66v228.34H.23Z" style="fill:#fff; stroke-width:0px;"/></g></g></mask><linearGradient id="uuid-0b47e528-fde8-4b04-9d3c-71f6ec010ede" x1="152.43" y1="451.27" x2="227.8" y2="526.64" gradientUnits="userSpaceOnUse"><stop offset="0" stop-color="#656599"/><stop offset="1" stop-color="#996582"/></linearGradient><linearGradient id="uuid-36dc1cb2-9bfa-4340-81f1-a4801108151f" x1="150.41" y1="236.15" x2="224.85" y2="310.59" gradientUnits="userSpaceOnUse"><stop offset="0" stop-color="#999965"/><stop offset="1" stop-color="#659982"/></linearGradient><linearGradient id="uuid-8c248637-a1b0-4e08-ae15-de876c1812d1" x1="234.59" y1="376.56" x2="317.97" y2="459.94" gradientUnits="userSpaceOnUse"><stop offset="0" stop-color="#659982"/><stop offset="1" stop-color="#656599"/></linearGradient></defs><g id="uuid-c5c41872-f6ee-4776-8e72-209bd5537638"><polygon points="0 511.99 352 287.75 352 512 0 511.99" style="fill:#202423; stroke-width:0px;"/><path d="M358.42,283.66l-6.42,4.09L0,511.99M389.1,283.66l-37.1,79.74-69.13,148.6M217.66,511.99l134.34-187.18,29.54-41.16M373.98,283.66l-21.98,21.98-206.34,206.36M81.03,511.99l270.97-216.8,14.43-11.54" style="fill:none; stroke:#fff; stroke-miterlimit:10; stroke-width:2px;"/><g style="mask:url(#uuid-4e2fc18e-c26f-40ff-975f-b0d7b8bc2815);"><path d="M52.22,478.72h351.78M97.88,449.64h304.79M143.53,420.55h259.13M179.21,397.39h223.46M216.26,374.22h186.41M254.2,350.05l97.8.66,50.67.34M288.99,327.89h113.68M325.35,304.72h77.32" style="fill:none; stroke:#fff; stroke-miterlimit:10; stroke-width:2px;"/></g></g><g id="uuid-b048eaa9-673a-4428-811d-472dab833aae"><g id="uuid-a4d0f865-bd71-4e3e-a220-e2f135901b48"><path d="M222.99,458.8v72.65h-45.4c-9.51,0-18.34-7.64-20.58-17.78l-12.11-54.87h78.09Z" style="fill:url(#uuid-0b47e528-fde8-4b04-9d3c-71f6ec010ede); stroke-width:0px;"/><path d="M225,310.44c-4.7-.06-36.07-1.01-57.55-27.01-15.95-19.31-16.87-40.83-16.89-47.43,5.13.05,31.23.84,52.41,22.02,21.18,21.18,21.98,47.29,22.03,52.42Z" style="fill:url(#uuid-36dc1cb2-9bfa-4340-81f1-a4801108151f); stroke-width:0px;"/><path d="M333.99,386.14v48.5c0,13.05-10.91,22.15-20.71,22.15h-88.28v-70.65h108.98Z" style="fill:url(#uuid-8c248637-a1b0-4e08-ae15-de876c1812d1); stroke-width:0px;"/></g><g id="uuid-a40b5017-dee1-4016-ac69-a90e064cc9a2"><path d="M222.99,386.14v70.65h-86.82c-12.21,0-22.15-9.94-22.15-22.15v-48.5h108.97Z" style="fill:#202423; stroke-width:0px;"/><path d="M302.4,458.8l-11.48,54.67c-2.19,10.42-11.3,17.98-21.66,17.98h-44.27v-72.65h77.4Z" style="fill:#202423; stroke-width:0px;"/><path d="M295.38,282.27c-.34,10.31-3.13,28.02-16.4,44.08-8.78,10.64-20.27,18.24-34.12,22.59-8.42,2.65-15.72,3.41-19.79,3.61.42-8.94,3.39-30.94,21.36-48.91,18-17.99,40.02-20.95,48.95-21.37Z" style="fill:#202423; stroke-width:0px;"/></g><g id="uuid-4f8351d6-83b2-4c4b-9459-004ac99c9b35"><path d="M334,386.13v48.5c0,12.22-9.94,22.16-22.16,22.16h-175.67c-12.22,0-22.16-9.94-22.16-22.16v-48.5h220M336,384.13H112v50.5c0,13.34,10.82,24.16,24.16,24.16h175.67c13.34,0,24.16-10.82,24.16-24.16v-50.5h0Z" style="fill:#fff; stroke-width:0px;"/><path d="M302.43,458.78l-11.49,54.69c-2.19,10.43-11.3,17.99-21.66,17.99h-90.55c-10.36,0-19.47-7.57-21.66-17.99l-11.49-54.69h156.85M304.89,456.78h-161.78l11.99,57.1c2.4,11.43,12.24,19.58,23.62,19.58h90.55c11.38,0,21.22-8.16,23.62-19.58l11.99-57.1h0Z" style="fill:#fff; stroke-width:0px;"/><path d="M302.43,458.78l-11.49,54.69c-2.19,10.43-11.3,17.99-21.66,17.99h-90.55c-10.36,0-19.47-7.57-21.66-17.99l-11.49-54.69h156.85M304.89,456.78h-161.78l11.99,57.1c2.4,11.43,12.24,19.58,23.62,19.58h90.55c11.38,0,21.22-8.16,23.62-19.58l11.99-57.1h0Z" style="fill:#fff; stroke-width:0px;"/><path d="M262.22,458.78l-5.77,54.89c-1.07,10.14-5.29,17.79-9.82,17.79h-45.27c-4.53,0-8.76-7.65-9.82-17.79l-5.77-54.89h76.45M264.44,456.78h-80.89l6,57.1c1.2,11.43,6.12,19.58,11.81,19.58h45.27c5.69,0,10.61-8.16,11.81-19.58l6-57.1h0Z" style="fill:#fff; stroke-width:0px;"/><line x1="224" y1="309.69" x2="224" y2="532.78" style="fill:none; stroke:#fff; stroke-miterlimit:10; stroke-width:2px;"/><path d="M152.6,238.06c8.91.42,30.96,3.37,48.97,21.38s20.95,40,21.37,48.94c-4.07-.21-11.38-.96-19.82-3.62-13.86-4.36-25.34-11.96-34.13-22.6-13.27-16.07-16.06-33.79-16.4-44.1M150.56,236c.03,6.59.95,28.12,16.89,47.43,21.48,26,52.85,26.95,57.55,27.01-.05-5.14-.84-31.24-22.02-52.42-21.18-21.18-47.28-21.97-52.42-22.02h0Z" style="fill:#fff; stroke-width:0px;"/><path d="M295.39,282.26c-.34,10.3-3.13,28.03-16.4,44.1-8.79,10.64-20.27,18.24-34.13,22.6-8.43,2.65-15.74,3.41-19.82,3.62.42-8.93,3.39-30.95,21.37-48.94,18.01-18.01,40.05-20.96,48.97-21.38M297.43,280.2c-5.14.05-31.24.84-52.42,22.02s-21.97,47.28-22.02,52.42c4.7-.06,36.07-1.01,57.55-27.01,15.95-19.31,16.87-40.84,16.89-47.43h0Z" style="fill:#fff; stroke-width:0px;"/><path d="M278,386.13v48.5c0,13.06-5.31,22.16-10.08,22.16h-87.84c-4.77,0-10.08-9.1-10.08-22.16v-48.5h108M280,384.13h-112v50.5c0,13.34,5.41,24.16,12.08,24.16h87.84c6.67,0,12.08-10.82,12.08-24.16v-50.5h0Z" style="fill:#fff; stroke-width:0px;"/></g></g></svg>